{
	"asset":{
		"generator":"Khronos glTF Blender I/O v4.0.44",
		"version":"2.0"
	},
	"scene":0,
	"scenes":[
		{
			"name":"Scene",
			"nodes":[
				0,
				1,
				2,
				3,
				4,
				5,
				6,
				7,
				8,
				9,
				10,
				11,
				12,
				13,
				14,
				15,
				16,
				17,
				18,
				19,
				20,
				21,
				22
			]
		}
	],
	"nodes":[
		{
			"mesh":0,
			"name":"Floor"
		},
		{
			"mesh":1,
			"name":"Cube"
		},
		{
			"mesh":2,
			"name":"Cube.001"
		},
		{
			"mesh":3,
			"name":"Cube.002"
		},
		{
			"mesh":4,
			"name":"Cube.003"
		},
		{
			"mesh":5,
			"name":"Cube.004"
		},
		{
			"mesh":6,
			"name":"Cube.005"
		},
		{
			"mesh":7,
			"name":"Cube.006"
		},
		{
			"mesh":8,
			"name":"Cube.007"
		},
		{
			"mesh":9,
			"name":"Cube.008"
		},
		{
			"mesh":10,
			"name":"Cube.009"
		},
		{
			"mesh":11,
			"name":"Cube.010"
		},
		{
			"mesh":12,
			"name":"Cube.011"
		},
		{
			"mesh":13,
			"name":"Cube.012"
		},
		{
			"mesh":14,
			"name":"Cube.013"
		},
		{
			"mesh":15,
			"name":"Cube.014"
		},
		{
			"mesh":16,
			"name":"Cube.015"
		},
		{
			"mesh":17,
			"name":"Cube.016"
		},
		{
			"mesh":18,
			"name":"Cube.017"
		},
		{
			"mesh":19,
			"name":"EastWall"
		},
		{
			"mesh":20,
			"name":"NorthWall"
		},
		{
			"mesh":21,
			"name":"SouthWall"
		},
		{
			"mesh":22,
			"name":"WestWall"
		}
	],
	"meshes":[
		{
			"name":"Plane",
			"primitives":[
				{
					"attributes":{
						"POSITION":0,
						"NORMAL":1,
						"TEXCOORD_0":2
					},
					"indices":3
				}
			]
		},
		{
			"name":"Cube",
			"primitives":[
				{
					"attributes":{
						"POSITION":4,
						"NORMAL":5,
						"TEXCOORD_0":6
					},
					"indices":7
				}
			]
		},
		{
			"name":"Cube.007",
			"primitives":[
				{
					"attributes":{
						"POSITION":8,
						"NORMAL":9,
						"TEXCOORD_0":10
					},
					"indices":7
				}
			]
		},
		{
			"name":"Cube.008",
			"primitives":[
				{
					"attributes":{
						"POSITION":11,
						"NORMAL":12,
						"TEXCOORD_0":13
					},
					"indices":7
				}
			]
		},
		{
			"name":"Cube.009",
			"primitives":[
				{
					"attributes":{
						"POSITION":14,
						"NORMAL":15,
						"TEXCOORD_0":16
					},
					"indices":7
				}
			]
		},
		{
			"name":"Cube.010",
			"primitives":[
				{
					"attributes":{
						"POSITION":17,
						"NORMAL":18,
						"TEXCOORD_0":19
					},
					"indices":7
				}
			]
		},
		{
			"name":"Cube.011",
			"primitives":[
				{
					"attributes":{
						"POSITION":20,
						"NORMAL":21,
						"TEXCOORD_0":22
					},
					"indices":7
				}
			]
		},
		{
			"name":"Cube.012",
			"primitives":[
				{
					"attributes":{
						"POSITION":23,
						"NORMAL":24,
						"TEXCOORD_0":25
					},
					"indices":7
				}
			]
		},
		{
			"name":"Cube.013",
			"primitives":[
				{
					"attributes":{
						"POSITION":26,
						"NORMAL":27,
						"TEXCOORD_0":28
					},
					"indices":7
				}
			]
		},
		{
			"name":"Cube.014",
			"primitives":[
				{
					"attributes":{
						"POSITION":29,
						"NORMAL":30,
						"TEXCOORD_0":31
					},
					"indices":7
				}
			]
		},
		{
			"name":"Cube.015",
			"primitives":[
				{
					"attributes":{
						"POSITION":32,
						"NORMAL":33,
						"TEXCOORD_0":34
					},
					"indices":7
				}
			]
		},
		{
			"name":"Cube.016",
			"primitives":[
				{
					"attributes":{
						"POSITION":35,
						"NORMAL":36,
						"TEXCOORD_0":37
					},
					"indices":7
				}
			]
		},
		{
			"name":"Cube.017",
			"primitives":[
				{
					"attributes":{
						"POSITION":38,
						"NORMAL":39,
						"TEXCOORD_0":40
					},
					"indices":7
				}
			]
		},
		{
			"name":"Cube.018",
			"primitives":[
				{
					"attributes":{
						"POSITION":41,
						"NORMAL":42,
						"TEXCOORD_0":43
					},
					"indices":7
				}
			]
		},
		{
			"name":"Cube.019",
			"primitives":[
				{
					"attributes":{
						"POSITION":44,
						"NORMAL":45,
						"TEXCOORD_0":46
					},
					"indices":7
				}
			]
		},
		{
			"name":"Cube.020",
			"primitives":[
				{
					"attributes":{
						"POSITION":47,
						"NORMAL":48,
						"TEXCOORD_0":49
					},
					"indices":7
				}
			]
		},
		{
			"name":"Cube.021",
			"primitives":[
				{
					"attributes":{
						"POSITION":50,
						"NORMAL":51,
						"TEXCOORD_0":52
					},
					"indices":7
				}
			]
		},
		{
			"name":"Cube.022",
			"primitives":[
				{
					"attributes":{
						"POSITION":53,
						"NORMAL":54,
						"TEXCOORD_0":55
					},
					"indices":7
				}
			]
		},
		{
			"name":"Cube.023",
			"primitives":[
				{
					"attributes":{
						"POSITION":56,
						"NORMAL":57,
						"TEXCOORD_0":58
					},
					"indices":7
				}
			]
		},
		{
			"name":"Cube.001",
			"primitives":[
				{
					"attributes":{
						"POSITION":59,
						"NORMAL":60,
						"TEXCOORD_0":61
					},
					"indices":7
				}
			]
		},
		{
			"name":"Cube.004",
			"primitives":[
				{
					"attributes":{
						"POSITION":62,
						"NORMAL":63,
						"TEXCOORD_0":64
					},
					"indices":7
				}
			]
		},
		{
			"name":"Cube.003",
			"primitives":[
				{
					"attributes":{
						"POSITION":65,
						"NORMAL":66,
						"TEXCOORD_0":67
					},
					"indices":7
				}
			]
		},
		{
			"name":"Cube.002",
			"primitives":[
				{
					"attributes":{
						"POSITION":68,
						"NORMAL":69,
						"TEXCOORD_0":70
					},
					"indices":7
				}
			]
		}
	],
	"accessors":[
		{
			"bufferView":0,
			"componentType":5126,
			"count":4,
			"max":[
				30,
				0,
				30
			],
			"min":[
				-30,
				0,
				-30
			],
			"type":"VEC3"
		},
		{
			"bufferView":1,
			"componentType":5126,
			"count":4,
			"type":"VEC3"
		},
		{
			"bufferView":2,
			"componentType":5126,
			"count":4,
			"type":"VEC2"
		},
		{
			"bufferView":3,
			"componentType":5123,
			"count":6,
			"type":"SCALAR"
		},
		{
			"bufferView":4,
			"componentType":5126,
			"count":24,
			"max":[
				-4,
				4,
				-19
			],
			"min":[
				-26,
				0,
				-26
			],
			"type":"VEC3"
		},
		{
			"bufferView":5,
			"componentType":5126,
			"count":24,
			"type":"VEC3"
		},
		{
			"bufferView":6,
			"componentType":5126,
			"count":24,
			"type":"VEC2"
		},
		{
			"bufferView":7,
			"componentType":5123,
			"count":36,
			"type":"SCALAR"
		},
		{
			"bufferView":8,
			"componentType":5126,
			"count":24,
			"max":[
				26,
				4,
				-15
			],
			"min":[
				0,
				0,
				-26
			],
			"type":"VEC3"
		},
		{
			"bufferView":9,
			"componentType":5126,
			"count":24,
			"type":"VEC3"
		},
		{
			"bufferView":10,
			"componentType":5126,
			"count":24,
			"type":"VEC2"
		},
		{
			"bufferView":11,
			"componentType":5126,
			"count":24,
			"max":[
				10,
				4,
				-7
			],
			"min":[
				0,
				0,
				-15
			],
			"type":"VEC3"
		},
		{
			"bufferView":12,
			"componentType":5126,
			"count":24,
			"type":"VEC3"
		},
		{
			"bufferView":13,
			"componentType":5126,
			"count":24,
			"type":"VEC2"
		},
		{
			"bufferView":14,
			"componentType":5126,
			"count":24,
			"max":[
				30,
				4,
				0
			],
			"min":[
				14,
				0,
				-11
			],
			"type":"VEC3"
		},
		{
			"bufferView":15,
			"componentType":5126,
			"count":24,
			"type":"VEC3"
		},
		{
			"bufferView":16,
			"componentType":5126,
			"count":24,
			"type":"VEC2"
		},
		{
			"bufferView":17,
			"componentType":5126,
			"count":24,
			"max":[
				30,
				4,
				30
			],
			"min":[
				14,
				0,
				22
			],
			"type":"VEC3"
		},
		{
			"bufferView":18,
			"componentType":5126,
			"count":24,
			"type":"VEC3"
		},
		{
			"bufferView":19,
			"componentType":5126,
			"count":24,
			"type":"VEC2"
		},
		{
			"bufferView":20,
			"componentType":5126,
			"count":24,
			"max":[
				30,
				4,
				22
			],
			"min":[
				26,
				0,
				0
			],
			"type":"VEC3"
		},
		{
			"bufferView":21,
			"componentType":5126,
			"count":24,
			"type":"VEC3"
		},
		{
			"bufferView":22,
			"componentType":5126,
			"count":24,
			"type":"VEC2"
		},
		{
			"bufferView":23,
			"componentType":5126,
			"count":24,
			"max":[
				22,
				4,
				18
			],
			"min":[
				14,
				0,
				4
			],
			"type":"VEC3"
		},
		{
			"bufferView":24,
			"componentType":5126,
			"count":24,
			"type":"VEC3"
		},
		{
			"bufferView":25,
			"componentType":5126,
			"count":24,
			"type":"VEC2"
		},
		{
			"bufferView":26,
			"componentType":5126,
			"count":24,
			"max":[
				14,
				4,
				18
			],
			"min":[
				4,
				0,
				13
			],
			"type":"VEC3"
		},
		{
			"bufferView":27,
			"componentType":5126,
			"count":24,
			"type":"VEC3"
		},
		{
			"bufferView":28,
			"componentType":5126,
			"count":24,
			"type":"VEC2"
		},
		{
			"bufferView":29,
			"componentType":5126,
			"count":24,
			"max":[
				10,
				4,
				26
			],
			"min":[
				0,
				0,
				22
			],
			"type":"VEC3"
		},
		{
			"bufferView":30,
			"componentType":5126,
			"count":24,
			"type":"VEC3"
		},
		{
			"bufferView":31,
			"componentType":5126,
			"count":24,
			"type":"VEC2"
		},
		{
			"bufferView":32,
			"componentType":5126,
			"count":24,
			"max":[
				0,
				4,
				26
			],
			"min":[
				-14,
				0,
				13
			],
			"type":"VEC3"
		},
		{
			"bufferView":33,
			"componentType":5126,
			"count":24,
			"type":"VEC3"
		},
		{
			"bufferView":34,
			"componentType":5126,
			"count":24,
			"type":"VEC2"
		},
		{
			"bufferView":35,
			"componentType":5126,
			"count":24,
			"max":[
				10,
				4,
				9
			],
			"min":[
				4,
				0,
				-3
			],
			"type":"VEC3"
		},
		{
			"bufferView":36,
			"componentType":5126,
			"count":24,
			"type":"VEC3"
		},
		{
			"bufferView":37,
			"componentType":5126,
			"count":24,
			"type":"VEC2"
		},
		{
			"bufferView":38,
			"componentType":5126,
			"count":24,
			"max":[
				4,
				4,
				9
			],
			"min":[
				-4,
				0,
				4
			],
			"type":"VEC3"
		},
		{
			"bufferView":39,
			"componentType":5126,
			"count":24,
			"type":"VEC3"
		},
		{
			"bufferView":40,
			"componentType":5126,
			"count":24,
			"type":"VEC2"
		},
		{
			"bufferView":41,
			"componentType":5126,
			"count":24,
			"max":[
				-4,
				4,
				9
			],
			"min":[
				-8,
				0,
				-3
			],
			"type":"VEC3"
		},
		{
			"bufferView":42,
			"componentType":5126,
			"count":24,
			"type":"VEC3"
		},
		{
			"bufferView":43,
			"componentType":5126,
			"count":24,
			"type":"VEC2"
		},
		{
			"bufferView":44,
			"componentType":5126,
			"count":24,
			"max":[
				-18,
				4,
				30
			],
			"min":[
				-30,
				0,
				13
			],
			"type":"VEC3"
		},
		{
			"bufferView":45,
			"componentType":5126,
			"count":24,
			"type":"VEC3"
		},
		{
			"bufferView":46,
			"componentType":5126,
			"count":24,
			"type":"VEC2"
		},
		{
			"bufferView":47,
			"componentType":5126,
			"count":24,
			"max":[
				-24,
				4,
				13
			],
			"min":[
				-30,
				0,
				-7
			],
			"type":"VEC3"
		},
		{
			"bufferView":48,
			"componentType":5126,
			"count":24,
			"type":"VEC3"
		},
		{
			"bufferView":49,
			"componentType":5126,
			"count":24,
			"type":"VEC2"
		},
		{
			"bufferView":50,
			"componentType":5126,
			"count":24,
			"max":[
				-4,
				4,
				-7
			],
			"min":[
				-20,
				0,
				-15
			],
			"type":"VEC3"
		},
		{
			"bufferView":51,
			"componentType":5126,
			"count":24,
			"type":"VEC3"
		},
		{
			"bufferView":52,
			"componentType":5126,
			"count":24,
			"type":"VEC2"
		},
		{
			"bufferView":53,
			"componentType":5126,
			"count":24,
			"max":[
				-12,
				4,
				9
			],
			"min":[
				-20,
				0,
				-7
			],
			"type":"VEC3"
		},
		{
			"bufferView":54,
			"componentType":5126,
			"count":24,
			"type":"VEC3"
		},
		{
			"bufferView":55,
			"componentType":5126,
			"count":24,
			"type":"VEC2"
		},
		{
			"bufferView":56,
			"componentType":5126,
			"count":24,
			"max":[
				-20,
				4,
				-11
			],
			"min":[
				-26,
				0,
				-15
			],
			"type":"VEC3"
		},
		{
			"bufferView":57,
			"componentType":5126,
			"count":24,
			"type":"VEC3"
		},
		{
			"bufferView":58,
			"componentType":5126,
			"count":24,
			"type":"VEC2"
		},
		{
			"bufferView":59,
			"componentType":5126,
			"count":24,
			"max":[
				30.149999618530273,
				4,
				30
			],
			"min":[
				29.850000381469727,
				0,
				-30
			],
			"type":"VEC3"
		},
		{
			"bufferView":60,
			"componentType":5126,
			"count":24,
			"type":"VEC3"
		},
		{
			"bufferView":61,
			"componentType":5126,
			"count":24,
			"type":"VEC2"
		},
		{
			"bufferView":62,
			"componentType":5126,
			"count":24,
			"max":[
				29.999998092651367,
				4,
				-29.850000381469727
			],
			"min":[
				-29.999998092651367,
				0,
				-30.149999618530273
			],
			"type":"VEC3"
		},
		{
			"bufferView":63,
			"componentType":5126,
			"count":24,
			"type":"VEC3"
		},
		{
			"bufferView":64,
			"componentType":5126,
			"count":24,
			"type":"VEC2"
		},
		{
			"bufferView":65,
			"componentType":5126,
			"count":24,
			"max":[
				29.999998092651367,
				4,
				30.149999618530273
			],
			"min":[
				-29.999998092651367,
				0,
				29.850000381469727
			],
			"type":"VEC3"
		},
		{
			"bufferView":66,
			"componentType":5126,
			"count":24,
			"type":"VEC3"
		},
		{
			"bufferView":67,
			"componentType":5126,
			"count":24,
			"type":"VEC2"
		},
		{
			"bufferView":68,
			"componentType":5126,
			"count":24,
			"max":[
				-29.850000381469727,
				4,
				30
			],
			"min":[
				-30.149999618530273,
				0,
				-30
			],
			"type":"VEC3"
		},
		{
			"bufferView":69,
			"componentType":5126,
			"count":24,
			"type":"VEC3"
		},
		{
			"bufferView":70,
			"componentType":5126,
			"count":24,
			"type":"VEC2"
		}
	],
	"bufferViews":[
		{
			"buffer":0,
			"byteLength":48,
			"byteOffset":0,
			"target":34962
		},
		{
			"buffer":0,
			"byteLength":48,
			"byteOffset":48,
			"target":34962
		},
		{
			"buffer":0,
			"byteLength":32,
			"byteOffset":96,
			"target":34962
		},
		{
			"buffer":0,
			"byteLength":12,
			"byteOffset":128,
			"target":34963
		},
		{
			"buffer":0,
			"byteLength":288,
			"byteOffset":140,
			"target":34962
		},
		{
			"buffer":0,
			"byteLength":288,
			"byteOffset":428,
			"target":34962
		},
		{
			"buffer":0,
			"byteLength":192,
			"byteOffset":716,
			"target":34962
		},
		{
			"buffer":0,
			"byteLength":72,
			"byteOffset":908,
			"target":34963
		},
		{
			"buffer":0,
			"byteLength":288,
			"byteOffset":980,
			"target":34962
		},
		{
			"buffer":0,
			"byteLength":288,
			"byteOffset":1268,
			"target":34962
		},
		{
			"buffer":0,
			"byteLength":192,
			"byteOffset":1556,
			"target":34962
		},
		{
			"buffer":0,
			"byteLength":288,
			"byteOffset":1748,
			"target":34962
		},
		{
			"buffer":0,
			"byteLength":288,
			"byteOffset":2036,
			"target":34962
		},
		{
			"buffer":0,
			"byteLength":192,
			"byteOffset":2324,
			"target":34962
		},
		{
			"buffer":0,
			"byteLength":288,
			"byteOffset":2516,
			"target":34962
		},
		{
			"buffer":0,
			"byteLength":288,
			"byteOffset":2804,
			"target":34962
		},
		{
			"buffer":0,
			"byteLength":192,
			"byteOffset":3092,
			"target":34962
		},
		{
			"buffer":0,
			"byteLength":288,
			"byteOffset":3284,
			"target":34962
		},
		{
			"buffer":0,
			"byteLength":288,
			"byteOffset":3572,
			"target":34962
		},
		{
			"buffer":0,
			"byteLength":192,
			"byteOffset":3860,
			"target":34962
		},
		{
			"buffer":0,
			"byteLength":288,
			"byteOffset":4052,
			"target":34962
		},
		{
			"buffer":0,
			"byteLength":288,
			"byteOffset":4340,
			"target":34962
		},
		{
			"buffer":0,
			"byteLength":192,
			"byteOffset":4628,
			"target":34962
		},
		{
			"buffer":0,
			"byteLength":288,
			"byteOffset":4820,
			"target":34962
		},
		{
			"buffer":0,
			"byteLength":288,
			"byteOffset":5108,
			"target":34962
		},
		{
			"buffer":0,
			"byteLength":192,
			"byteOffset":5396,
			"target":34962
		},
		{
			"buffer":0,
			"byteLength":288,
			"byteOffset":5588,
			"target":34962
		},
		{
			"buffer":0,
			"byteLength":288,
			"byteOffset":5876,
			"target":34962
		},
		{
			"buffer":0,
			"byteLength":192,
			"byteOffset":6164,
			"target":34962
		},
		{
			"buffer":0,
			"byteLength":288,
			"byteOffset":6356,
			"target":34962
		},
		{
			"buffer":0,
			"byteLength":288,
			"byteOffset":6644,
			"target":34962
		},
		{
			"buffer":0,
			"byteLength":192,
			"byteOffset":6932,
			"target":34962
		},
		{
			"buffer":0,
			"byteLength":288,
			"byteOffset":7124,
			"target":34962
		},
		{
			"buffer":0,
			"byteLength":288,
			"byteOffset":7412,
			"target":34962
		},
		{
			"buffer":0,
			"byteLength":192,
			"byteOffset":7700,
			"target":34962
		},
		{
			"buffer":0,
			"byteLength":288,
			"byteOffset":7892,
			"target":34962
		},
		{
			"buffer":0,
			"byteLength":288,
			"byteOffset":8180,
			"target":34962
		},
		{
			"buffer":0,
			"byteLength":192,
			"byteOffset":8468,
			"target":34962
		},
		{
			"buffer":0,
			"byteLength":288,
			"byteOffset":8660,
			"target":34962
		},
		{
			"buffer":0,
			"byteLength":288,
			"byteOffset":8948,
			"target":34962
		},
		{
			"buffer":0,
			"byteLength":192,
			"byteOffset":9236,
			"target":34962
		},
		{
			"buffer":0,
			"byteLength":288,
			"byteOffset":9428,
			"target":34962
		},
		{
			"buffer":0,
			"byteLength":288,
			"byteOffset":9716,
			"target":34962
		},
		{
			"buffer":0,
			"byteLength":192,
			"byteOffset":10004,
			"target":34962
		},
		{
			"buffer":0,
			"byteLength":288,
			"byteOffset":10196,
			"target":34962
		},
		{
			"buffer":0,
			"byteLength":288,
			"byteOffset":10484,
			"target":34962
		},
		{
			"buffer":0,
			"byteLength":192,
			"byteOffset":10772,
			"target":34962
		},
		{
			"buffer":0,
			"byteLength":288,
			"byteOffset":10964,
			"target":34962
		},
		{
			"buffer":0,
			"byteLength":288,
			"byteOffset":11252,
			"target":34962
		},
		{
			"buffer":0,
			"byteLength":192,
			"byteOffset":11540,
			"target":34962
		},
		{
			"buffer":0,
			"byteLength":288,
			"byteOffset":11732,
			"target":34962
		},
		{
			"buffer":0,
			"byteLength":288,
			"byteOffset":12020,
			"target":34962
		},
		{
			"buffer":0,
			"byteLength":192,
			"byteOffset":12308,
			"target":34962
		},
		{
			"buffer":0,
			"byteLength":288,
			"byteOffset":12500,
			"target":34962
		},
		{
			"buffer":0,
			"byteLength":288,
			"byteOffset":12788,
			"target":34962
		},
		{
			"buffer":0,
			"byteLength":192,
			"byteOffset":13076,
			"target":34962
		},
		{
			"buffer":0,
			"byteLength":288,
			"byteOffset":13268,
			"target":34962
		},
		{
			"buffer":0,
			"byteLength":288,
			"byteOffset":13556,
			"target":34962
		},
		{
			"buffer":0,
			"byteLength":192,
			"byteOffset":13844,
			"target":34962
		},
		{
			"buffer":0,
			"byteLength":288,
			"byteOffset":14036,
			"target":34962
		},
		{
			"buffer":0,
			"byteLength":288,
			"byteOffset":14324,
			"target":34962
		},
		{
			"buffer":0,
			"byteLength":192,
			"byteOffset":14612,
			"target":34962
		},
		{
			"buffer":0,
			"byteLength":288,
			"byteOffset":14804,
			"target":34962
		},
		{
			"buffer":0,
			"byteLength":288,
			"byteOffset":15092,
			"target":34962
		},
		{
			"buffer":0,
			"byteLength":192,
			"byteOffset":15380,
			"target":34962
		},
		{
			"buffer":0,
			"byteLength":288,
			"byteOffset":15572,
			"target":34962
		},
		{
			"buffer":0,
			"byteLength":288,
			"byteOffset":15860,
			"target":34962
		},
		{
			"buffer":0,
			"byteLength":192,
			"byteOffset":16148,
			"target":34962
		},
		{
			"buffer":0,
			"byteLength":288,
			"byteOffset":16340,
			"target":34962
		},
		{
			"buffer":0,
			"byteLength":288,
			"byteOffset":16628,
			"target":34962
		},
		{
			"buffer":0,
			"byteLength":192,
			"byteOffset":16916,
			"target":34962
		}
	],
	"buffers":[
		{
			"byteLength":17108,
			"uri":"Mapa.bin"
		}
	]
}
